<svg aria-roledescription="flowchart-v2" role="graphics-document document" viewBox="-8 -8 901.1015625 554.7557983398438" style="max-width: 901.102px; background-color: white;" xmlns:xlink="http://www.w3.org/1999/xlink" xmlns="http://www.w3.org/2000/svg" width="100%" id="my-svg"><style>#my-svg{font-family:"trebuchet ms",verdana,arial,sans-serif;font-size:16px;fill:#333;}#my-svg .error-icon{fill:#552222;}#my-svg .error-text{fill:#552222;stroke:#552222;}#my-svg .edge-thickness-normal{stroke-width:2px;}#my-svg .edge-thickness-thick{stroke-width:3.5px;}#my-svg .edge-pattern-solid{stroke-dasharray:0;}#my-svg .edge-pattern-dashed{stroke-dasharray:3;}#my-svg .edge-pattern-dotted{stroke-dasharray:2;}#my-svg .marker{fill:#333333;stroke:#333333;}#my-svg .marker.cross{stroke:#333333;}#my-svg svg{font-family:"trebuchet ms",verdana,arial,sans-serif;font-size:16px;}#my-svg .label{font-family:"trebuchet ms",verdana,arial,sans-serif;color:#333;}#my-svg .cluster-label text{fill:#333;}#my-svg .cluster-label span,#my-svg p{color:#333;}#my-svg .label text,#my-svg span,#my-svg p{fill:#333;color:#333;}#my-svg .node rect,#my-svg .node circle,#my-svg .node ellipse,#my-svg .node polygon,#my-svg .node path{fill:#ECECFF;stroke:#9370DB;stroke-width:1px;}#my-svg .flowchart-label text{text-anchor:middle;}#my-svg .node .katex path{fill:#000;stroke:#000;stroke-width:1px;}#my-svg .node .label{text-align:center;}#my-svg .node.clickable{cursor:pointer;}#my-svg .arrowheadPath{fill:#333333;}#my-svg .edgePath .path{stroke:#333333;stroke-width:2.0px;}#my-svg .flowchart-link{stroke:#333333;fill:none;}#my-svg .edgeLabel{background-color:#e8e8e8;text-align:center;}#my-svg .edgeLabel rect{opacity:0.5;background-color:#e8e8e8;fill:#e8e8e8;}#my-svg .labelBkg{background-color:rgba(232, 232, 232, 0.5);}#my-svg .cluster rect{fill:#ffffde;stroke:#aaaa33;stroke-width:1px;}#my-svg .cluster text{fill:#333;}#my-svg .cluster span,#my-svg p{color:#333;}#my-svg div.mermaidTooltip{position:absolute;text-align:center;max-width:200px;padding:2px;font-family:"trebuchet ms",verdana,arial,sans-serif;font-size:12px;background:hsl(80, 100%, 96.2745098039%);border:1px solid #aaaa33;border-radius:2px;pointer-events:none;z-index:100;}#my-svg .flowchartTitleText{text-anchor:middle;font-size:18px;fill:#333;}#my-svg :root{--mermaid-font-family:"trebuchet ms",verdana,arial,sans-serif;}</style><g><marker orient="auto" markerHeight="12" markerWidth="12" markerUnits="userSpaceOnUse" refY="5" refX="6" viewBox="0 0 10 10" class="marker flowchart" id="my-svg_flowchart-pointEnd"><path style="stroke-width: 1; stroke-dasharray: 1, 0;" class="arrowMarkerPath" d="M 0 0 L 10 5 L 0 10 z"/></marker><marker orient="auto" markerHeight="12" markerWidth="12" markerUnits="userSpaceOnUse" refY="5" refX="4.5" viewBox="0 0 10 10" class="marker flowchart" id="my-svg_flowchart-pointStart"><path style="stroke-width: 1; stroke-dasharray: 1, 0;" class="arrowMarkerPath" d="M 0 5 L 10 10 L 10 0 z"/></marker><marker orient="auto" markerHeight="11" markerWidth="11" markerUnits="userSpaceOnUse" refY="5" refX="11" viewBox="0 0 10 10" class="marker flowchart" id="my-svg_flowchart-circleEnd"><circle style="stroke-width: 1; stroke-dasharray: 1, 0;" class="arrowMarkerPath" r="5" cy="5" cx="5"/></marker><marker orient="auto" markerHeight="11" markerWidth="11" markerUnits="userSpaceOnUse" refY="5" refX="-1" viewBox="0 0 10 10" class="marker flowchart" id="my-svg_flowchart-circleStart"><circle style="stroke-width: 1; stroke-dasharray: 1, 0;" class="arrowMarkerPath" r="5" cy="5" cx="5"/></marker><marker orient="auto" markerHeight="11" markerWidth="11" markerUnits="userSpaceOnUse" refY="5.2" refX="12" viewBox="0 0 11 11" class="marker cross flowchart" id="my-svg_flowchart-crossEnd"><path style="stroke-width: 2; stroke-dasharray: 1, 0;" class="arrowMarkerPath" d="M 1,1 l 9,9 M 10,1 l -9,9"/></marker><marker orient="auto" markerHeight="11" markerWidth="11" markerUnits="userSpaceOnUse" refY="5.2" refX="-1" viewBox="0 0 11 11" class="marker cross flowchart" id="my-svg_flowchart-crossStart"><path style="stroke-width: 2; stroke-dasharray: 1, 0;" class="arrowMarkerPath" d="M 1,1 l 9,9 M 10,1 l -9,9"/></marker><g class="root"><g class="clusters"><g id="vendors" class="cluster default flowchart-label"><rect height="126.25579833984375" width="314.7734375" y="412.5" x="570.328125" ry="0" rx="0" style=""/><g transform="translate(658.76953125, 412.5)" class="cluster-label"><foreignObject height="18.5" width="137.890625"><div style="display: inline-block; white-space: nowrap;" xmlns="http://www.w3.org/1999/xhtml"><span class="nodeLabel">External AI vendors</span></div></foreignObject></g></g><g id="backend" class="cluster default flowchart-label"><rect height="253.25579833984375" width="550.328125" y="285.5" x="0" ry="0" rx="0" style=""/><g transform="translate(210.2109375, 285.5)" class="cluster-label"><foreignObject height="18.5" width="129.90625"><div style="display: inline-block; white-space: nowrap;" xmlns="http://www.w3.org/1999/xhtml"><span class="nodeLabel">Company backend</span></div></foreignObject></g></g><g id="ios" class="cluster default flowchart-label"><rect height="83.5" width="331.4375" y="133.5" x="145.296875" ry="0" rx="0" style=""/><g transform="translate(257.046875, 133.5)" class="cluster-label"><foreignObject height="18.5" width="107.9375"><div style="display: inline-block; white-space: nowrap;" xmlns="http://www.w3.org/1999/xhtml"><span class="nodeLabel">iOS application</span></div></foreignObject></g></g><g id="field" class="cluster default flowchart-label"><rect height="83.5" width="116.796875" y="0" x="252.6171875" ry="0" rx="0" style=""/><g transform="translate(269.2578125, 0)" class="cluster-label"><foreignObject height="18.5" width="83.515625"><div style="display: inline-block; white-space: nowrap;" xmlns="http://www.w3.org/1999/xhtml"><span class="nodeLabel">Field / user</span></div></foreignObject></g></g></g><g class="edgePaths"><path marker-end="url(#my-svg_flowchart-pointEnd)" marker-start="url(#my-svg_flowchart-pointStart)" style="fill:none;" class="edge-thickness-normal edge-pattern-solid flowchart-link LS-API LE-DB" id="L-API-DB-0" d="M238.727,345.283L216.701,350.777C194.675,356.272,150.623,367.261,128.596,378.464C106.57,389.667,106.57,401.083,106.57,410.302C106.57,419.52,106.57,426.54,106.57,430.049L106.57,433.559"/><path marker-end="url(#my-svg_flowchart-pointEnd)" marker-start="url(#my-svg_flowchart-pointStart)" style="fill:none;" class="edge-thickness-normal edge-pattern-solid flowchart-link LS-API LE-OBJ" id="L-API-OBJ-0" d="M311.016,349.3L311.016,354.125C311.016,358.95,311.016,368.6,311.016,379.133C311.016,389.667,311.016,401.083,311.016,410.075C311.016,419.067,311.016,425.633,311.016,428.917L311.016,432.2"/><path marker-end="url(#my-svg_flowchart-pointEnd)" marker-start="url(#my-svg_flowchart-pointStart)" style="fill:none;" class="edge-thickness-normal edge-pattern-solid flowchart-link LS-USER LE-APP" id="L-USER-APP-0" d="M311.016,63.8L311.016,67.083C311.016,70.367,311.016,76.933,311.016,84.383C311.016,91.833,311.016,100.167,311.016,108.5C311.016,116.833,311.016,125.167,311.016,132.617C311.016,140.067,311.016,146.633,311.016,149.917L311.016,153.2"/><path marker-end="url(#my-svg_flowchart-pointEnd)" style="fill:none;" class="edge-thickness-normal edge-pattern-solid flowchart-link LS-APP LE-API" id="L-APP-API-0" d="M311.016,192L311.016,196.167C311.016,200.333,311.016,208.667,311.016,218.542C311.016,228.417,311.016,239.833,311.016,251.25C311.016,262.667,311.016,274.083,311.016,283.075C311.016,292.067,311.016,298.633,311.016,301.917L311.016,305.2"/><path marker-end="url(#my-svg_flowchart-pointEnd)" style="fill:none;" class="edge-thickness-normal edge-pattern-solid flowchart-link LS-API LE-AI" id="L-API-AI-0" d="M350.314,344L363.707,349.708C377.1,355.417,403.886,366.833,417.279,378.25C430.672,389.667,430.672,401.083,466.179,414.338C501.686,427.592,572.701,442.684,608.208,450.23L643.715,457.776"/></g><g class="edgeLabels"><g class="edgeLabel"><g transform="translate(0, 0)" class="label"><foreignObject height="0" width="0"><div style="display: inline-block; white-space: nowrap;" xmlns="http://www.w3.org/1999/xhtml"><span class="edgeLabel"></span></div></foreignObject></g></g><g class="edgeLabel"><g transform="translate(0, 0)" class="label"><foreignObject height="0" width="0"><div style="display: inline-block; white-space: nowrap;" xmlns="http://www.w3.org/1999/xhtml"><span class="edgeLabel"></span></div></foreignObject></g></g><g class="edgeLabel"><g transform="translate(0, 0)" class="label"><foreignObject height="0" width="0"><div style="display: inline-block; white-space: nowrap;" xmlns="http://www.w3.org/1999/xhtml"><span class="edgeLabel"></span></div></foreignObject></g></g><g transform="translate(311.015625, 251.25)" class="edgeLabel"><g transform="translate(-101.23046875, -9.25)" class="label"><foreignObject height="18.5" width="202.4609375"><div style="display: inline-block; white-space: nowrap;" xmlns="http://www.w3.org/1999/xhtml"><span class="edgeLabel">TLS: upload media, call APIs</span></div></foreignObject></g></g><g transform="translate(430.671875, 378.25)" class="edgeLabel"><g transform="translate(-99.65625, -9.25)" class="label"><foreignObject height="18.5" width="199.3125"><div style="display: inline-block; white-space: nowrap;" xmlns="http://www.w3.org/1999/xhtml"><span class="edgeLabel">Server-side credentials only</span></div></foreignObject></g></g></g><g class="nodes"><g transform="translate(727.71484375, 475.6278991699219)" data-id="AI" data-node="true" id="flowchart-AI-9" class="node default default flowchart-label"><rect height="33.5" width="244.7734375" y="-16.75" x="-122.38671875" ry="0" rx="0" style="" class="basic label-container"/><g transform="translate(-114.88671875, -9.25)" style="" class="label"><rect/><foreignObject height="18.5" width="229.7734375"><div style="display: inline-block; white-space: nowrap;" xmlns="http://www.w3.org/1999/xhtml"><span class="nodeLabel">Speech-to-text, vision, LLM APIs</span></div></foreignObject></g></g><g transform="translate(311.015625, 327.25)" data-id="API" data-node="true" id="flowchart-API-2" class="node default default flowchart-label"><rect height="33.5" width="197.578125" y="-16.75" x="-98.7890625" ry="0" rx="0" style="" class="basic label-container"/><g transform="translate(-91.2890625, -9.25)" style="" class="label"><rect/><foreignObject height="18.5" width="182.578125"><div style="display: inline-block; white-space: nowrap;" xmlns="http://www.w3.org/1999/xhtml"><span class="nodeLabel">API and job orchestration</span></div></foreignObject></g></g><g transform="translate(106.5703125, 475.6278991699219)" data-id="DB" data-node="true" id="flowchart-DB-3" class="node default default flowchart-label"><path transform="translate(-71.5703125,-36.76850125284074)" d="M 0,13.345667501893828 a 71.5703125,13.345667501893828 0,0,0 143.140625 0 a 71.5703125,13.345667501893828 0,0,0 -143.140625 0 l 0,46.84566750189383 a 71.5703125,13.345667501893828 0,0,0 143.140625 0 l 0,-46.84566750189383" style=""/><g transform="translate(-64.0703125, -9.25)" style="" class="label"><rect/><foreignObject height="18.5" width="128.140625"><div style="display: inline-block; white-space: nowrap;" xmlns="http://www.w3.org/1999/xhtml"><span class="nodeLabel">Product datastore</span></div></foreignObject></g></g><g transform="translate(311.015625, 475.6278991699219)" data-id="OBJ" data-node="true" id="flowchart-OBJ-4" class="node default default flowchart-label"><path transform="translate(-82.875,-38.12790197764402)" d="M 0,14.251934651762683 a 82.875,14.251934651762683 0,0,0 165.75 0 a 82.875,14.251934651762683 0,0,0 -165.75 0 l 0,47.75193465176268 a 82.875,14.251934651762683 0,0,0 165.75 0 l 0,-47.75193465176268" style=""/><g transform="translate(-75.375, -9.25)" style="" class="label"><rect/><foreignObject height="18.5" width="150.75"><div style="display: inline-block; white-space: nowrap;" xmlns="http://www.w3.org/1999/xhtml"><span class="nodeLabel">Media object storage</span></div></foreignObject></g></g><g transform="translate(311.015625, 175.25)" data-id="APP" data-node="true" id="flowchart-APP-1" class="node default default flowchart-label"><rect height="33.5" width="261.4375" y="-16.75" x="-130.71875" ry="0" rx="0" style="" class="basic label-container"/><g transform="translate(-123.21875, -9.25)" style="" class="label"><rect/><foreignObject height="18.5" width="246.4375"><div style="display: inline-block; white-space: nowrap;" xmlns="http://www.w3.org/1999/xhtml"><span class="nodeLabel">Native app: capture and review UI</span></div></foreignObject></g></g><g transform="translate(311.015625, 41.75)" data-id="USER" data-node="true" id="flowchart-USER-0" class="node default default flowchart-label"><rect height="33.5" width="46.796875" y="-16.75" x="-23.3984375" ry="0" rx="0" style="" class="basic label-container"/><g transform="translate(-15.8984375, -9.25)" style="" class="label"><rect/><foreignObject height="18.5" width="31.796875"><div style="display: inline-block; white-space: nowrap;" xmlns="http://www.w3.org/1999/xhtml"><span class="nodeLabel">User</span></div></foreignObject></g></g></g></g></g></svg>