<svg aria-roledescription="flowchart-v2" role="graphics-document document" viewBox="-8 -8 796.78125 477.0370178222656" style="max-width: 796.781px; background-color: white;" xmlns:xlink="http://www.w3.org/1999/xlink" xmlns="http://www.w3.org/2000/svg" width="100%" id="my-svg"><style>#my-svg{font-family:"trebuchet ms",verdana,arial,sans-serif;font-size:16px;fill:#333;}#my-svg .error-icon{fill:#552222;}#my-svg .error-text{fill:#552222;stroke:#552222;}#my-svg .edge-thickness-normal{stroke-width:2px;}#my-svg .edge-thickness-thick{stroke-width:3.5px;}#my-svg .edge-pattern-solid{stroke-dasharray:0;}#my-svg .edge-pattern-dashed{stroke-dasharray:3;}#my-svg .edge-pattern-dotted{stroke-dasharray:2;}#my-svg .marker{fill:#333333;stroke:#333333;}#my-svg .marker.cross{stroke:#333333;}#my-svg svg{font-family:"trebuchet ms",verdana,arial,sans-serif;font-size:16px;}#my-svg .label{font-family:"trebuchet ms",verdana,arial,sans-serif;color:#333;}#my-svg .cluster-label text{fill:#333;}#my-svg .cluster-label span,#my-svg p{color:#333;}#my-svg .label text,#my-svg span,#my-svg p{fill:#333;color:#333;}#my-svg .node rect,#my-svg .node circle,#my-svg .node ellipse,#my-svg .node polygon,#my-svg .node path{fill:#ECECFF;stroke:#9370DB;stroke-width:1px;}#my-svg .flowchart-label text{text-anchor:middle;}#my-svg .node .katex path{fill:#000;stroke:#000;stroke-width:1px;}#my-svg .node .label{text-align:center;}#my-svg .node.clickable{cursor:pointer;}#my-svg .arrowheadPath{fill:#333333;}#my-svg .edgePath .path{stroke:#333333;stroke-width:2.0px;}#my-svg .flowchart-link{stroke:#333333;fill:none;}#my-svg .edgeLabel{background-color:#e8e8e8;text-align:center;}#my-svg .edgeLabel rect{opacity:0.5;background-color:#e8e8e8;fill:#e8e8e8;}#my-svg .labelBkg{background-color:rgba(232, 232, 232, 0.5);}#my-svg .cluster rect{fill:#ffffde;stroke:#aaaa33;stroke-width:1px;}#my-svg .cluster text{fill:#333;}#my-svg .cluster span,#my-svg p{color:#333;}#my-svg div.mermaidTooltip{position:absolute;text-align:center;max-width:200px;padding:2px;font-family:"trebuchet ms",verdana,arial,sans-serif;font-size:12px;background:hsl(80, 100%, 96.2745098039%);border:1px solid #aaaa33;border-radius:2px;pointer-events:none;z-index:100;}#my-svg .flowchartTitleText{text-anchor:middle;font-size:18px;fill:#333;}#my-svg :root{--mermaid-font-family:"trebuchet ms",verdana,arial,sans-serif;}</style><g><marker orient="auto" markerHeight="12" markerWidth="12" markerUnits="userSpaceOnUse" refY="5" refX="6" viewBox="0 0 10 10" class="marker flowchart" id="my-svg_flowchart-pointEnd"><path style="stroke-width: 1; stroke-dasharray: 1, 0;" class="arrowMarkerPath" d="M 0 0 L 10 5 L 0 10 z"/></marker><marker orient="auto" markerHeight="12" markerWidth="12" markerUnits="userSpaceOnUse" refY="5" refX="4.5" viewBox="0 0 10 10" class="marker flowchart" id="my-svg_flowchart-pointStart"><path style="stroke-width: 1; stroke-dasharray: 1, 0;" class="arrowMarkerPath" d="M 0 5 L 10 10 L 10 0 z"/></marker><marker orient="auto" markerHeight="11" markerWidth="11" markerUnits="userSpaceOnUse" refY="5" refX="11" viewBox="0 0 10 10" class="marker flowchart" id="my-svg_flowchart-circleEnd"><circle style="stroke-width: 1; stroke-dasharray: 1, 0;" class="arrowMarkerPath" r="5" cy="5" cx="5"/></marker><marker orient="auto" markerHeight="11" markerWidth="11" markerUnits="userSpaceOnUse" refY="5" refX="-1" viewBox="0 0 10 10" class="marker flowchart" id="my-svg_flowchart-circleStart"><circle style="stroke-width: 1; stroke-dasharray: 1, 0;" class="arrowMarkerPath" r="5" cy="5" cx="5"/></marker><marker orient="auto" markerHeight="11" markerWidth="11" markerUnits="userSpaceOnUse" refY="5.2" refX="12" viewBox="0 0 11 11" class="marker cross flowchart" id="my-svg_flowchart-crossEnd"><path style="stroke-width: 2; stroke-dasharray: 1, 0;" class="arrowMarkerPath" d="M 1,1 l 9,9 M 10,1 l -9,9"/></marker><marker orient="auto" markerHeight="11" markerWidth="11" markerUnits="userSpaceOnUse" refY="5.2" refX="-1" viewBox="0 0 11 11" class="marker cross flowchart" id="my-svg_flowchart-crossStart"><path style="stroke-width: 2; stroke-dasharray: 1, 0;" class="arrowMarkerPath" d="M 1,1 l 9,9 M 10,1 l -9,9"/></marker><g class="root"><g class="clusters"><g id="backend" class="cluster default flowchart-label"><rect height="334.0370101928711" width="541.4609375" y="127" x="0" ry="0" rx="0" style=""/><g transform="translate(240.8125, 127)" class="cluster-label"><foreignObject height="18.5" width="59.8359375"><div style="display: inline-block; white-space: nowrap;" xmlns="http://www.w3.org/1999/xhtml"><span class="nodeLabel">Backend</span></div></foreignObject></g></g><g id="device" class="cluster default flowchart-label"><rect height="352.5370101928711" width="219.3203125" y="0" x="561.4609375" ry="0" rx="0" style=""/><g transform="translate(659.6015625, 0)" class="cluster-label"><foreignObject height="18.5" width="23.0390625"><div style="display: inline-block; white-space: nowrap;" xmlns="http://www.w3.org/1999/xhtml"><span class="nodeLabel">iOS</span></div></foreignObject></g></g></g><g class="edgePaths"><path marker-end="url(#my-svg_flowchart-pointEnd)" style="fill:none;" class="edge-thickness-normal edge-pattern-solid flowchart-link LS-API LE-STT" id="L-API-STT-0" d="M296.543,177.103L263.105,184.211C229.668,191.319,162.793,205.534,129.355,220.804C95.918,236.073,95.918,252.396,95.918,260.557L95.918,268.719"/><path marker-end="url(#my-svg_flowchart-pointEnd)" style="fill:none;" class="edge-thickness-normal edge-pattern-solid flowchart-link LS-STT LE-LLM" id="L-STT-LLM-0" d="M95.918,307.519L95.918,315.022C95.918,322.525,95.918,337.531,95.918,349.201C95.918,360.87,95.918,369.204,113.936,377.492C131.954,385.781,167.989,394.026,186.007,398.148L204.025,402.27"/><path marker-end="url(#my-svg_flowchart-pointEnd)" style="fill:none;" class="edge-thickness-normal edge-pattern-solid flowchart-link LS-API LE-BUCKET" id="L-API-BUCKET-0" d="M316.977,185.5L310.548,191.208C304.12,196.917,291.263,208.333,284.835,218.867C278.406,229.4,278.406,239.05,278.406,243.875L278.406,248.7"/><path marker-end="url(#my-svg_flowchart-pointEnd)" style="fill:none;" class="edge-thickness-normal edge-pattern-solid flowchart-link LS-BUCKET LE-LLM" id="L-BUCKET-LLM-0" d="M278.406,327.537L278.406,331.704C278.406,335.87,278.406,344.204,278.406,352.537C278.406,360.87,278.406,369.204,278.406,376.654C278.406,384.104,278.406,390.67,278.406,393.954L278.406,397.237"/><path marker-end="url(#my-svg_flowchart-pointEnd)" style="fill:none;" class="edge-thickness-normal edge-pattern-solid flowchart-link LS-LLM LE-API" id="L-LLM-API-0" d="M321.162,402.537L331.798,398.37C342.434,394.204,363.705,385.87,374.341,377.537C384.977,369.204,384.977,360.87,384.977,346.409C384.977,331.948,384.977,311.358,384.977,289.227C384.977,267.096,384.977,243.423,380.09,226.514C375.203,209.606,365.429,199.461,360.542,194.389L355.655,189.317"/><path marker-end="url(#my-svg_flowchart-pointEnd)" style="fill:none;" class="edge-thickness-normal edge-pattern-solid flowchart-link LS-REC LE-API" id="L-REC-API-0" d="M671.121,58.5L671.121,64.208C671.121,69.917,671.121,81.333,671.121,92.75C671.121,104.167,671.121,115.583,622.667,127.325C574.213,139.067,477.304,151.135,428.85,157.168L380.396,163.202"/><path marker-end="url(#my-svg_flowchart-pointEnd)" style="fill:none;" class="edge-thickness-normal edge-pattern-solid flowchart-link LS-API LE-UI" id="L-API-UI-0" d="M375.137,184.484L389.817,190.361C404.497,196.239,433.858,207.995,474.18,222.631C514.503,237.268,565.787,254.787,591.429,263.546L617.071,272.305"/></g><g class="edgeLabels"><g class="edgeLabel"><g transform="translate(0, 0)" class="label"><foreignObject height="0" width="0"><div style="display: inline-block; white-space: nowrap;" xmlns="http://www.w3.org/1999/xhtml"><span class="edgeLabel"></span></div></foreignObject></g></g><g class="edgeLabel"><g transform="translate(0, 0)" class="label"><foreignObject height="0" width="0"><div style="display: inline-block; white-space: nowrap;" xmlns="http://www.w3.org/1999/xhtml"><span class="edgeLabel"></span></div></foreignObject></g></g><g class="edgeLabel"><g transform="translate(0, 0)" class="label"><foreignObject height="0" width="0"><div style="display: inline-block; white-space: nowrap;" xmlns="http://www.w3.org/1999/xhtml"><span class="edgeLabel"></span></div></foreignObject></g></g><g class="edgeLabel"><g transform="translate(0, 0)" class="label"><foreignObject height="0" width="0"><div style="display: inline-block; white-space: nowrap;" xmlns="http://www.w3.org/1999/xhtml"><span class="edgeLabel"></span></div></foreignObject></g></g><g class="edgeLabel"><g transform="translate(0, 0)" class="label"><foreignObject height="0" width="0"><div style="display: inline-block; white-space: nowrap;" xmlns="http://www.w3.org/1999/xhtml"><span class="edgeLabel"></span></div></foreignObject></g></g><g transform="translate(671.12109375, 92.75)" class="edgeLabel"><g transform="translate(-46.97265625, -9.25)" class="label"><foreignObject height="18.5" width="93.9453125"><div style="display: inline-block; white-space: nowrap;" xmlns="http://www.w3.org/1999/xhtml"><span class="edgeLabel">Upload audio</span></div></foreignObject></g></g><g transform="translate(463.21875, 219.75)" class="edgeLabel"><g transform="translate(-58.2421875, -9.25)" class="label"><foreignObject height="18.5" width="116.484375"><div style="display: inline-block; white-space: nowrap;" xmlns="http://www.w3.org/1999/xhtml"><span class="edgeLabel">Structured draft</span></div></foreignObject></g></g></g><g class="nodes"><g transform="translate(335.83984375, 168.75)" data-id="API" data-node="true" id="flowchart-API-2" class="node default default flowchart-label"><rect height="33.5" width="78.59375" y="-16.75" x="-39.296875" ry="0" rx="0" style="" class="basic label-container"/><g transform="translate(-31.796875, -9.25)" style="" class="label"><rect/><foreignObject height="18.5" width="63.59375"><div style="display: inline-block; white-space: nowrap;" xmlns="http://www.w3.org/1999/xhtml"><span class="nodeLabel">API layer</span></div></foreignObject></g></g><g transform="translate(278.40625, 290.76850509643555)" data-id="BUCKET" data-node="true" id="flowchart-BUCKET-3" class="node default default flowchart-label"><path transform="translate(-71.5703125,-36.76850125284074)" d="M 0,13.345667501893828 a 71.5703125,13.345667501893828 0,0,0 143.140625 0 a 71.5703125,13.345667501893828 0,0,0 -143.140625 0 l 0,46.84566750189383 a 71.5703125,13.345667501893828 0,0,0 143.140625 0 l 0,-46.84566750189383" style=""/><g transform="translate(-64.0703125, -9.25)" style="" class="label"><rect/><foreignObject height="18.5" width="128.140625"><div style="display: inline-block; white-space: nowrap;" xmlns="http://www.w3.org/1999/xhtml"><span class="nodeLabel">Product datastore</span></div></foreignObject></g></g><g transform="translate(95.91796875, 290.76850509643555)" data-id="STT" data-node="true" id="flowchart-STT-4" class="node default default flowchart-label"><rect height="33.5" width="121.8359375" y="-16.75" x="-60.91796875" ry="0" rx="0" style="" class="basic label-container"/><g transform="translate(-53.41796875, -9.25)" style="" class="label"><rect/><foreignObject height="18.5" width="106.8359375"><div style="display: inline-block; white-space: nowrap;" xmlns="http://www.w3.org/1999/xhtml"><span class="nodeLabel">Speech-to-text</span></div></foreignObject></g></g><g transform="translate(278.40625, 419.2870101928711)" data-id="LLM" data-node="true" id="flowchart-LLM-5" class="node default default flowchart-label"><rect height="33.5" width="138.4296875" y="-16.75" x="-69.21484375" ry="0" rx="0" style="" class="basic label-container"/><g transform="translate(-61.71484375, -9.25)" style="" class="label"><rect/><foreignObject height="18.5" width="123.4296875"><div style="display: inline-block; white-space: nowrap;" xmlns="http://www.w3.org/1999/xhtml"><span class="nodeLabel">LLM with context</span></div></foreignObject></g></g><g transform="translate(671.12109375, 41.75)" data-id="REC" data-node="true" id="flowchart-REC-0" class="node default default flowchart-label"><rect height="33.5" width="108.0625" y="-16.75" x="-54.03125" ry="0" rx="0" style="" class="basic label-container"/><g transform="translate(-46.53125, -9.25)" style="" class="label"><rect/><foreignObject height="18.5" width="93.0625"><div style="display: inline-block; white-space: nowrap;" xmlns="http://www.w3.org/1999/xhtml"><span class="nodeLabel">Record audio</span></div></foreignObject></g></g><g transform="translate(671.12109375, 290.76850509643555)" data-id="UI" data-node="true" id="flowchart-UI-1" class="node default default flowchart-label"><rect height="33.5" width="149.3203125" y="-16.75" x="-74.66015625" ry="0" rx="0" style="" class="basic label-container"/><g transform="translate(-67.16015625, -9.25)" style="" class="label"><rect/><foreignObject height="18.5" width="134.3203125"><div style="display: inline-block; white-space: nowrap;" xmlns="http://www.w3.org/1999/xhtml"><span class="nodeLabel">Review and edit UI</span></div></foreignObject></g></g></g></g></g></svg>